# xmcd
#
# Track frame offsets: 
#        150
#        17658
#        28151
#        41904
#        70075
#        83020
#        102578
#        117179
#        130007
#        152595
#        167142
#        180576
#        196343
#        215298
#        230514
#        245443
#        266235
#        276740
#        297482
#        315303
#
# Disc length: 4387 seconds
#
# Revision: 0
# Processed by: cddbd v1.5.2PL0 Copyright (c) Steve Scherf et al.
# Submitted via: ExactAudioCopy v0.99pb5
#
DISCID=24112114
DTITLE=Жанна Агузарова - The Best
DYEAR=1999
DGENRE=Club
TTITLE0=Ты, только ты
TTITLE1=А снег идет
TTITLE2=Верю я
TTITLE3=Свободная земля
TTITLE4=Черный кот
TTITLE5=В городе моем
TTITLE6=Зимушка
TTITLE7=Будь со мной
TTITLE8=Счастливая любовь
TTITLE9=Чудесная страна
TTITLE10=Орел
TTITLE11=Желтые ботинки
TTITLE12=Вернись ко мне
TTITLE13=В чем дело
TTITLE14=Звезда
TTITLE15=Один поцелуй моряка
TTITLE16=Ленинградский рок-н-ролл
TTITLE17=Мужчины в этой жизни
TTITLE18=Старый отель
TTITLE19=Hali bob
EXTD=
EXTT0=
EXTT1=
EXTT2=
EXTT3=
EXTT4=
EXTT5=
EXTT6=
EXTT7=
EXTT8=
EXTT9=
EXTT10=
EXTT11=
EXTT12=
EXTT13=
EXTT14=
EXTT15=
EXTT16=
EXTT17=
EXTT18=
EXTT19=
PLAYORDER=
